<svg id="visual" viewBox="0 0 100 50" width="100" height="50" xmlns="http://www.w3.org/2000/svg" xmlns:xlink="http://www.w3.org/1999/xlink" version="1.1"><path d="M0 43L2.3 42.7C4.7 42.3 9.3 41.7 14.2 39.8C19 38 24 35 28.8 33.8C33.7 32.7 38.3 33.3 43 34.8C47.7 36.3 52.3 38.7 57 39.7C61.7 40.7 66.3 40.3 71.2 39.3C76 38.3 81 36.7 85.8 35.2C90.7 33.7 95.3 32.3 97.7 31.7L100 31L100 51L97.7 51C95.3 51 90.7 51 85.8 51C81 51 76 51 71.2 51C66.3 51 61.7 51 57 51C52.3 51 47.7 51 43 51C38.3 51 33.7 51 28.8 51C24 51 19 51 14.2 51C9.3 51 4.7 51 2.3 51L0 51Z" fill="#9147ff" stroke-linecap="round" stroke-linejoin="miter"></path></svg>